<svg
    width="27"
    height="14"
    viewBox="0 0 27 14"
    fill="none"
    xmlns="http://www.w3.org/2000/svg"
>
    <path
        d="M20.956 5.375L2.31299 5.375C1.51906 5.375 0.875488 6.01857 0.875488 6.8125C0.875488 7.60642 1.51906 8.25 2.31299 8.25L20.956 8.25L18.5257 10.6686L18.5257 10.6686C17.963 11.2286 17.9608 12.1388 18.5208 12.7015C19.081 13.2644 19.9912 13.2663 20.5538 12.7064L20.2011 12.352L20.5538 12.7064L25.4524 7.8314L25.4576 7.82622L25.4592 7.82454C26.0152 7.26377 26.0133 6.35936 25.4592 5.80051L25.4577 5.79887L25.4524 5.79359L20.5537 0.91859L20.5537 0.918584C19.9911 0.358625 19.0809 0.360701 18.5208 0.923469C17.9608 1.48618 17.9629 2.39634 18.5256 2.95639L18.5256 2.95641L20.956 5.375Z"
        fill="currentColor"
        stroke="currentColor"
    />
</svg>
