<svg
    width="32"
    height="32"
    viewBox="0 0 32 32"
    fill="currentColor"
    xmlns="http://www.w3.org/2000/svg"
>
    <path
        d="M4 30C2.89551 30 2 29.1055 2 28V16C2 14.8945 2.89551 14 4 14C5.10449 14 6 14.8945 6 16V28C6 29.1055 5.10449 30 4 30Z"
    />
    <path
        d="M12 30C10.8955 30 10 29.1055 10 28V4C10 2.89453 10.8955 2 12 2C13.1045 2 14 2.89453 14 4V28C14 29.1055 13.1045 30 12 30Z"
    />
    <path
        d="M20 30C18.8945 30 18 29.1055 18 28V20C18 18.8945 18.8945 18 20 18C21.1055 18 22 18.8945 22 20V28C22 29.1055 21.1055 30 20 30Z"
    />
    <path
        d="M28 30C26.8945 30 26 29.1055 26 28V12C26 10.8945 26.8945 10 28 10C29.1055 10 30 10.8945 30 12V28C30 29.1055 29.1055 30 28 30Z"
    />
</svg>
