<svg
    width="32"
    height="32"
    viewBox="0 0 32 32"
    fill="currentColor"
    xmlns="http://www.w3.org/2000/svg"
>
    <path
        d="M26.6667 5.33331H5.33337C4.27251 5.33331 3.25509 5.75474 2.50495 6.50489C1.7548 7.25503 1.33337 8.27245 1.33337 9.33331V22.6666C1.33337 23.7275 1.7548 24.7449 2.50495 25.4951C3.25509 26.2452 4.27251 26.6666 5.33337 26.6666H26.6667C27.7276 26.6666 28.745 26.2452 29.4951 25.4951C30.2453 24.7449 30.6667 23.7275 30.6667 22.6666V9.33331C30.6667 8.27245 30.2453 7.25503 29.4951 6.50489C28.745 5.75474 27.7276 5.33331 26.6667 5.33331ZM5.33337 7.99998H26.6667C27.0203 7.99998 27.3595 8.14046 27.6095 8.3905C27.8596 8.64055 28 8.97969 28 9.33331V10.6666H4.00004V9.33331C4.00004 8.97969 4.14052 8.64055 4.39056 8.3905C4.64061 8.14046 4.97975 7.99998 5.33337 7.99998ZM26.6667 24H5.33337C4.97975 24 4.64061 23.8595 4.39056 23.6095C4.14052 23.3594 4.00004 23.0203 4.00004 22.6666V16H28V22.6666C28 23.0203 27.8596 23.3594 27.6095 23.6095C27.3595 23.8595 27.0203 24 26.6667 24Z"
    />
</svg>
