<svg
    width="710"
    height="536"
    viewBox="0 0 710 536"
    fill="none"
    xmlns="http://www.w3.org/2000/svg"
>
    <path
        d="M64.187 289.977C-1.01354 332.526 44.6925 391.971 75.6955 416.375C171.557 490.944 182.791 404.054 321.24 467.995C459.688 531.936 431.932 486.938 607.263 270.971C782.594 55.0047 552.714 57.5244 524.558 99.8554C496.403 142.186 445.601 122.419 382.496 57.2244C319.391 -7.97021 160.749 106.999 188.266 176.288C215.783 245.577 145.688 236.791 64.187 289.977Z"
        stroke="white"
        stroke-opacity="0.13"
    />
    <path
        d="M93.0344 287.638C34.2873 326.017 75.4809 379.655 103.421 401.676C189.812 468.965 199.924 390.574 324.689 448.28C449.454 505.985 424.437 465.384 582.401 270.56C740.365 75.7365 533.219 77.9804 507.853 116.168C482.487 154.356 436.707 136.515 379.834 77.6878C322.962 18.8608 180.023 122.567 204.828 185.083C229.633 247.599 166.468 239.664 93.0344 287.638Z"
        stroke="white"
        stroke-opacity="0.13"
    />
    <path
        d="M115.411 285.946C61.676 321.012 99.3443 370.004 124.895 390.116C203.899 451.572 213.158 379.962 327.259 432.658C441.36 485.354 418.486 448.27 562.983 270.282C707.481 92.2948 518.027 94.3714 494.823 129.258C471.618 164.145 429.75 147.854 377.743 94.1241C325.735 40.3944 194.991 135.146 217.669 192.25C240.347 249.354 182.579 242.113 115.411 285.946Z"
        stroke="white"
        stroke-opacity="0.13"
    />
    <path
        d="M136.53 283.659C87.5509 315.645 121.892 360.341 145.185 378.691C217.206 434.762 225.64 369.435 329.654 417.518C433.669 465.601 412.814 431.768 544.517 269.407C676.22 107.046 503.523 108.925 482.373 140.749C461.224 172.573 423.057 157.708 375.645 108.688C328.233 59.6672 209.06 146.095 229.737 198.191C250.414 250.288 197.754 243.677 136.53 283.659Z"
        stroke="white"
        stroke-opacity="0.13"
    />
    <path
        d="M159.492 281.9C115.666 310.556 146.404 350.615 167.251 367.063C231.711 417.321 239.249 358.78 332.338 401.884C425.427 444.988 406.759 414.666 524.596 269.187C642.433 123.709 487.887 125.367 468.965 153.883C450.043 182.399 415.886 169.072 373.45 125.136C331.014 81.2001 224.379 158.634 242.891 205.322C261.402 252.011 214.276 246.079 159.492 281.9Z"
        stroke="white"
        stroke-opacity="0.13"
    />
    <path
        d="M183.635 280.07C145.218 305.165 172.155 340.235 190.426 354.634C246.919 398.629 253.532 347.374 335.119 385.103C416.706 422.832 400.348 396.286 503.647 268.899C606.947 141.513 471.488 142.982 454.9 167.951C438.312 192.92 408.375 181.255 371.184 142.792C333.994 104.329 240.521 172.138 256.741 213.014C272.961 253.889 231.656 248.701 183.635 280.07Z"
        stroke="white"
        stroke-opacity="0.13"
    />
</svg>
