<svg
    width="172"
    height="51"
    viewBox="0 0 172 51"
    fill="none"
    xmlns="http://www.w3.org/2000/svg"
>
    <path
        d="M68.736 39H73.524V32.448L78.284 39H84.22L77.668 31.216L84.164 23.376H78.256L73.524 29.732V18.28H68.736V39ZM90.8326 31.748C90.8326 29.06 92.1486 28.276 94.4166 28.276H95.7326V23.208C93.6326 23.208 91.9246 24.328 90.8326 25.98V23.376H86.0446V39H90.8326V31.748ZM98.0212 39H102.809V23.376H98.0212V39ZM100.429 21.752C102.109 21.752 103.257 20.604 103.257 19.176C103.257 17.72 102.109 16.572 100.429 16.572C98.7212 16.572 97.5732 17.72 97.5732 19.176C97.5732 20.604 98.7212 21.752 100.429 21.752ZM111.067 25.588V23.376H106.279V46.448H111.067V36.816C111.935 38.132 113.587 39.224 115.883 39.224C119.719 39.224 122.771 36.088 122.771 31.16C122.771 26.232 119.719 23.152 115.883 23.152C113.587 23.152 111.935 24.216 111.067 25.588ZM117.899 31.16C117.899 33.652 116.275 35.052 114.455 35.052C112.663 35.052 111.039 33.68 111.039 31.188C111.039 28.696 112.663 27.324 114.455 27.324C116.275 27.324 117.899 28.668 117.899 31.16ZM126.039 33.568C126.039 37.628 128.307 39 131.555 39H133.991V34.94H132.283C131.219 34.94 130.827 34.548 130.827 33.624V27.352H133.963V23.376H130.827V19.568H126.039V23.376H124.135V27.352H126.039V33.568ZM151.946 31.188C151.946 26.232 148.418 23.152 143.826 23.152C139.262 23.152 135.706 26.232 135.706 31.188C135.706 36.144 139.178 39.224 143.77 39.224C148.362 39.224 151.946 36.144 151.946 31.188ZM140.578 31.188C140.578 28.528 142.09 27.296 143.826 27.296C145.506 27.296 147.074 28.528 147.074 31.188C147.074 33.82 145.478 35.08 143.77 35.08C142.034 35.08 140.578 33.82 140.578 31.188ZM165.266 39H170.026V29.872C170.026 25.672 167.618 23.208 164.006 23.208C161.906 23.208 160.226 24.132 159.274 25.448V23.376H154.486V39H159.274V30.516C159.274 28.388 160.45 27.212 162.27 27.212C164.09 27.212 165.266 28.388 165.266 30.516V39Z"
        fill="#363062"
    />
    <path
        d="M12.6832 49.6357C12.6832 50.124 12.2912 50.516 11.8063 50.516C11.3179 50.516 10.9259 50.124 10.9259 49.6357V42.8087C10.9259 42.3236 11.3179 41.9283 11.8063 41.9283C12.2913 41.9283 12.6832 42.3236 12.6832 42.8087V49.6357ZM0.926324 39.6361C0.441254 39.6361 0.0458374 39.2441 0.0458374 38.7591C0.0458374 38.2741 0.441254 37.8788 0.926324 37.8788H7.75646C8.24141 37.8788 8.63343 38.2741 8.63343 38.7591C8.63343 39.2442 8.24129 39.6361 7.75646 39.6361H0.926324ZM0.926324 12.6373C0.441254 12.6373 0.0458374 12.2452 0.0458374 11.7603C0.0458374 11.2719 0.441254 10.8799 0.926324 10.8799H7.75646C8.24141 10.8799 8.63343 11.2719 8.63343 11.7603C8.63343 12.2454 8.24129 12.6373 7.75646 12.6373H0.926324ZM0.926324 19.3879C0.441254 19.3879 0.0458374 18.9959 0.0458374 18.5076C0.0458374 18.0226 0.441254 17.6305 0.926324 17.6305H7.75646C8.24141 17.6305 8.63343 18.0226 8.63343 18.5076C8.63343 18.9959 8.24129 19.3879 7.75646 19.3879H0.926324ZM0.926324 26.1384C0.441254 26.1384 0.0458374 25.7431 0.0458374 25.258C0.0458374 24.7729 0.441254 24.381 0.926324 24.381H7.75646C8.24141 24.381 8.63343 24.7731 8.63343 25.258C8.63343 25.743 8.24129 26.1384 7.75646 26.1384H0.926324ZM0.926324 32.8888C0.441254 32.8888 0.0458374 32.4934 0.0458374 32.0084C0.0458374 31.5234 0.441254 31.1281 0.926324 31.1281H7.75646C8.24141 31.1281 8.63343 31.5235 8.63343 32.0084C8.63343 32.4934 8.24129 32.8888 7.75646 32.8888H0.926324ZM10.9258 0.88037C10.9258 0.395299 11.3178 0 11.8061 0C12.2912 0 12.6831 0.395299 12.6831 0.88037V7.71062C12.6831 8.19569 12.2911 8.58771 11.8061 8.58771C11.3178 8.58771 10.9258 8.19569 10.9258 7.71062V0.88037ZM37.9246 0.88037C37.9246 0.395299 38.3199 0 38.805 0C39.29 0 39.6819 0.395299 39.6819 0.88037V7.71062C39.6819 8.19569 39.2899 8.58771 38.805 8.58771C38.3199 8.58771 37.9246 8.19569 37.9246 7.71062V0.88037ZM31.174 0.88037C31.174 0.395299 31.5693 0 32.0544 0C32.5395 0 32.9348 0.395299 32.9348 0.88037V7.71062C32.9348 8.19569 32.5395 8.58771 32.0544 8.58771C31.5693 8.58771 31.174 8.19569 31.174 7.71062V0.88037ZM24.4269 0.88037C24.4269 0.395299 24.8189 0 25.3038 0C25.7888 0 26.1842 0.395299 26.1842 0.88037V7.71062C26.1842 8.19569 25.7889 8.58771 25.3038 8.58771C24.8188 8.58771 24.4269 8.19569 24.4269 7.71062V0.88037ZM17.6762 0.88037C17.6762 0.395299 18.0683 0 18.5533 0C19.0415 0 19.4337 0.395299 19.4337 0.88037V7.71062C19.4337 8.19569 19.0415 8.58771 18.5533 8.58771C18.0682 8.58771 17.6762 8.19569 17.6762 7.71062V0.88037ZM49.6814 37.8788C50.1698 37.8788 50.5619 38.2741 50.5619 38.7591C50.5619 39.2442 50.1698 39.6361 49.6814 39.6361H42.8545C42.3695 39.6361 41.9742 39.2441 41.9742 38.7591C41.9742 38.2741 42.3695 37.8788 42.8545 37.8788H49.6814ZM49.6814 10.8799C50.1698 10.8799 50.5619 11.2719 50.5619 11.7603C50.5619 12.2454 50.1698 12.6373 49.6814 12.6373H42.8545C42.3695 12.6373 41.9742 12.2452 41.9742 11.7603C41.9742 11.2719 42.3695 10.8799 42.8545 10.8799H49.6814ZM49.6814 17.6304C50.1698 17.6304 50.5619 18.0225 50.5619 18.5075C50.5619 18.9958 50.1698 19.3878 49.6814 19.3878H42.8545C42.3695 19.3878 41.9742 18.9958 41.9742 18.5075C41.9742 18.0225 42.3695 17.6304 42.8545 17.6304H49.6814ZM49.6814 24.381C50.1698 24.381 50.5619 24.7731 50.5619 25.258C50.5619 25.743 50.1698 26.1384 49.6814 26.1384H42.8545C42.3695 26.1384 41.9742 25.7431 41.9742 25.258C41.9742 24.7729 42.3695 24.381 42.8545 24.381H49.6814ZM49.6814 31.1281C50.1698 31.1281 50.5619 31.5235 50.5619 32.0084C50.5619 32.4934 50.1698 32.8888 49.6814 32.8888H42.8545C42.3695 32.8888 41.9742 32.4934 41.9742 32.0084C41.9742 31.5234 42.3695 31.1281 42.8545 31.1281H49.6814ZM39.6819 49.6357C39.6819 50.124 39.2899 50.516 38.805 50.516C38.3199 50.516 37.9246 50.124 37.9246 49.6357V42.8087C37.9246 42.3236 38.3199 41.9283 38.805 41.9283C39.29 41.9283 39.6819 42.3236 39.6819 42.8087V49.6357ZM32.9347 49.6357C32.9347 50.124 32.5394 50.516 32.0543 50.516C31.5692 50.516 31.1739 50.124 31.1739 49.6357V42.8087C31.1739 42.3236 31.5692 41.9283 32.0543 41.9283C32.5394 41.9283 32.9347 42.3236 32.9347 42.8087V49.6357ZM26.1842 49.6357C26.1842 50.124 25.7889 50.516 25.3038 50.516C24.8188 50.516 24.4269 50.124 24.4269 49.6357V42.8087C24.4269 42.3236 24.8189 41.9283 25.3038 41.9283C25.7888 41.9283 26.1842 42.3236 26.1842 42.8087V49.6357ZM19.4337 49.6357C19.4337 50.124 19.0415 50.516 18.5533 50.516C18.0682 50.516 17.6762 50.124 17.6762 49.6357V42.8087C17.6762 42.3236 18.0683 41.9283 18.5533 41.9283C19.0415 41.9283 19.4337 42.3236 19.4337 42.8087V49.6357Z"
        fill="#D8B9C3"
    />
    <path
        fill-rule="evenodd"
        clip-rule="evenodd"
        d="M11.8061 7.71063H38.8049C41.0307 7.71063 42.8545 9.53114 42.8545 11.7603V38.7591C42.8545 40.9849 41.0307 42.8087 38.8049 42.8087H11.8061C9.57698 42.8087 7.75647 40.9849 7.75647 38.7591V11.7603C7.75647 9.53114 9.57698 7.71063 11.8061 7.71063Z"
        fill="#4D4C7D"
    />
    <path
        fill-rule="evenodd"
        clip-rule="evenodd"
        d="M35.2869 7.71057H38.8049C41.0308 7.71057 42.8546 9.53108 42.8546 11.7602V38.7591C42.8546 40.9848 41.0308 42.8086 38.8049 42.8086H35.2869C37.5159 42.8086 39.3397 40.9848 39.3397 38.7591V11.7602C39.3397 9.53108 37.5158 7.71057 35.2869 7.71057Z"
        fill="#363062"
    />
    <path
        fill-rule="evenodd"
        clip-rule="evenodd"
        d="M14.733 13.7502H35.8748C36.3897 13.7502 36.8116 14.1721 36.8116 14.6871V35.8289C36.8116 36.3438 36.3896 36.7657 35.8748 36.7657H14.733C14.218 36.7657 13.7961 36.3437 13.7961 35.8289V14.6871C13.7961 14.1721 14.218 13.7502 14.733 13.7502Z"
        fill="#D8B9C3"
    />
    <path
        fill-rule="evenodd"
        clip-rule="evenodd"
        d="M32.36 13.7502H35.8747C36.3897 13.7502 36.8116 14.1721 36.8116 14.6871V35.8289C36.8116 36.3438 36.3896 36.7657 35.8747 36.7657H32.36C32.8749 36.7657 33.2968 36.3437 33.2968 35.8289V14.6871C33.2968 14.1721 32.875 13.7502 32.36 13.7502Z"
        fill="#C2A5AF"
    />
    <path
        d="M23.1711 18.75V17.5972C23.1711 17.1121 23.5664 16.7202 24.0515 16.7202C24.5366 16.7202 24.9319 17.1122 24.9319 17.5972V18.75H26.769V17.5972C26.769 17.1121 27.161 16.7202 27.6494 16.7202C28.1345 16.7202 28.5264 17.1122 28.5264 17.5972V18.8563C29.194 19.0191 29.7921 19.3646 30.2672 19.8329C30.9416 20.5041 31.3603 21.4275 31.3603 22.444C31.3603 23.5337 30.8752 24.5569 30.0412 25.2579C30.8752 25.9588 31.3603 26.9821 31.3603 28.0751C31.3603 29.0884 30.9416 30.0118 30.2672 30.683C29.7921 31.1547 29.1941 31.5002 28.5264 31.6629V32.9188C28.5264 33.4038 28.1343 33.7992 27.6494 33.7992C27.161 33.7992 26.769 33.4038 26.769 32.9188V31.7692H24.9319V32.9188C24.9319 33.4038 24.5366 33.7992 24.0515 33.7992C23.5664 33.7992 23.1711 33.4038 23.1711 32.9188V31.7692H20.1279C19.6429 31.7692 19.2476 31.3738 19.2476 30.8889C19.2476 30.4038 19.6429 30.0085 20.1279 30.0085H21.0484V25.258V20.5074H20.1279C19.6429 20.5074 19.2476 20.1154 19.2476 19.6303C19.2476 19.1419 19.6429 18.7499 20.1279 18.7499C21.1413 18.75 22.1579 18.75 23.1711 18.75ZM27.6493 26.1384H22.8057V30.0086H27.6493C28.1874 30.0086 28.6758 29.7927 29.0312 29.4406C29.3834 29.0917 29.6027 28.6067 29.6027 28.0752C29.6027 27.5403 29.3834 27.0586 29.0312 26.7064C28.6758 26.3542 28.1873 26.1384 27.6493 26.1384ZM27.6493 20.5074H22.8057V24.3809H27.6493C28.1874 24.3809 28.6758 24.1616 29.0312 23.8095C29.3834 23.4607 29.6027 22.9756 29.6027 22.444C29.6027 21.9125 29.3834 21.4275 29.0312 21.0753C28.6758 20.7266 28.1873 20.5074 27.6493 20.5074Z"
        fill="white"
    />
</svg>
