<svg
    width="144"
    height="144"
    viewBox="0 0 144 144"
    fill="none"
    xmlns="http://www.w3.org/2000/svg"
>
    <path
        d="M3.60216 44.7827L76.1431 2.62644L72.679 0.626343L0.138062 42.7826L3.60216 44.7827Z"
        fill="#FE91AB"
    />
    <path
        d="M81.7909 65.6418C78.5929 63.7929 76.0003 59.2989 76.0132 55.6311L76.1251 2.63879L51.4465 16.9791L3.60189 44.7798L3.47139 97.7832C3.46509 101.456 6.05739 105.951 9.25569 107.794C10.8646 108.726 12.3238 108.81 13.3789 108.199L85.9207 66.0399C84.8653 66.6516 83.3998 66.5679 81.7909 65.6418Z"
        fill="#ED5D71"
    />
    <path
        d="M6.49837 46.7896L16.2949 52.4436L17.0092 52.8568V109.02C16.0633 108.964 15.0187 108.641 13.9174 108.005C9.75517 105.596 6.37447 99.7458 6.38737 94.965L6.49837 46.7896Z"
        fill="#E3E7F0"
    />
    <path
        d="M91.2078 11.3247L91.0776 64.3269C91.0644 67.2387 90.0354 69.2967 88.3677 70.2606L15.8262 112.419C17.4936 111.448 18.5226 109.397 18.5358 106.478L18.666 53.4762L91.2078 11.3247Z"
        fill="#ED5D71"
    />
    <path
        d="M15.8263 52.175L83.9277 12.5987L74.5999 7.21313L6.49835 46.7894L15.8263 52.175Z"
        fill="white"
    />
    <path
        d="M0.138038 42.7827L0.00633755 95.784C-0.0104624 101.652 4.13104 108.828 9.23974 111.777C14.3481 114.727 18.5169 112.349 18.5334 106.481L18.6654 53.4795L15.201 51.4794L15.0693 104.481C15.0588 108.154 12.4494 109.643 9.25114 107.797C6.05254 105.95 3.45994 101.458 3.47044 97.7841L3.60214 44.7828L0.138038 42.7827Z"
        fill="#D3374E"
    />
    <path
        d="M18.6654 53.4795L91.206 11.3232L87.742 9.32312L15.201 51.4794L18.6654 53.4795Z"
        fill="#FE91AB"
    />
    <path
        d="M91.2261 2.6319L73.9779 12.6567L66.5292 25.665L91.2078 11.3247L91.2261 2.6319Z"
        fill="#ED5D71"
    />
    <path
        d="M73.98 12.6567L66.5319 25.6632L63.0675 23.6631L70.5159 10.6569L73.98 12.6567Z"
        fill="#D3374E"
    />
    <path
        d="M73.98 12.657L91.2258 2.63462L87.7617 0.634521L70.5159 10.6569L73.98 12.657Z"
        fill="#FE91AB"
    />
    <path
        d="M29.986 59.9475L102.527 17.7912L99.0627 15.7911L26.5219 57.9474L29.986 59.9475Z"
        fill="#FFDD94"
    />
    <path
        d="M108.175 80.8065C104.977 78.9579 102.384 74.4636 102.397 70.7961L102.509 17.8035L77.8303 32.1441L29.9857 59.9448L29.8555 112.948C29.8489 116.62 32.4415 121.116 35.6395 122.959C37.2484 123.891 38.7076 123.975 39.7627 123.363L112.304 81.2049C111.249 81.8163 109.784 81.7326 108.175 80.8065Z"
        fill="#FEBB61"
    />
    <path
        d="M32.8822 61.9542L42.6787 67.6083L43.393 68.0214V124.185C42.4471 124.129 41.4025 123.805 40.3012 123.17C36.139 120.76 32.7583 114.911 32.7712 110.13L32.8822 61.9542Z"
        fill="#E3E7F0"
    />
    <path
        d="M117.592 26.4895L117.461 79.4917C117.448 82.4035 116.419 84.4615 114.752 85.4257L42.2101 127.584C43.8775 126.613 44.9065 124.562 44.9197 121.643L45.0499 68.641L117.592 26.4895Z"
        fill="#FEBB61"
    />
    <path
        d="M42.21 67.3398L110.311 27.7635L100.984 22.3779L32.8821 61.9542L42.21 67.3398Z"
        fill="white"
    />
    <path
        d="M26.5218 57.9474L26.3901 110.949C26.3733 116.817 30.5148 123.992 35.6235 126.942C40.7322 129.891 44.9007 127.514 44.9175 121.645L45.0492 68.6442L41.5848 66.6441L41.4531 119.645C41.4426 123.319 38.8332 124.808 35.6349 122.961C32.4363 121.115 29.8437 116.622 29.8542 112.949L29.9859 59.9475L26.5218 57.9474Z"
        fill="#EFA143"
    />
    <path
        d="M45.0492 68.6442L117.59 26.4879L114.126 24.4878L41.5848 66.6441L45.0492 68.6442Z"
        fill="#FFDD94"
    />
    <path
        d="M117.61 17.7966L100.362 27.8217L92.9131 40.8297L117.592 26.4894L117.61 17.7966Z"
        fill="#FEBB61"
    />
    <path
        d="M100.364 27.8218L92.9158 40.828L89.4514 38.8282L96.8998 25.8217L100.364 27.8218Z"
        fill="#EFA143"
    />
    <path
        d="M100.364 27.8216L117.61 17.7995L114.146 15.7994L96.8997 25.8215L100.364 27.8216Z"
        fill="#FFDD94"
    />
    <path
        d="M56.37 75.1122L128.911 32.9562L125.447 30.9561L52.9056 73.1121L56.37 75.1122Z"
        fill="#7BB1FF"
    />
    <path
        d="M134.558 95.9715C131.36 94.1226 128.768 89.6283 128.781 85.9608L128.893 32.9685L104.214 47.3088L56.3695 75.1095L56.2393 128.113C56.2327 131.785 58.8253 136.281 62.0233 138.124C63.6322 139.056 65.0914 139.14 66.1465 138.528L138.688 96.3696C137.633 96.981 136.167 96.8973 134.558 95.9715Z"
        fill="#5793FB"
    />
    <path
        d="M59.2659 77.1193L69.0624 82.7731L69.7767 83.1865V139.35C68.8308 139.294 67.7862 138.97 66.6849 138.335C62.5227 135.925 59.1421 130.076 59.1553 125.294L59.2659 77.1193Z"
        fill="#E3E7F0"
    />
    <path
        d="M143.975 41.6542L143.845 94.6564C143.832 97.5682 142.803 99.6265 141.136 100.59L68.5939 142.749C70.2613 141.778 71.2906 139.726 71.3035 136.808L71.4337 83.806L143.975 41.6542Z"
        fill="#5793FB"
    />
    <path
        d="M120.536 100.562L138.199 90.2992C138.199 90.2992 138.188 93.7768 138.191 93.9949L120.52 104.265L120.536 100.562Z"
        fill="#E3E7F0"
    />
    <path
        d="M120.536 93.5794L138.199 83.3158C138.199 83.3158 138.188 86.7934 138.191 87.0118L120.52 97.2823L120.536 93.5794Z"
        fill="#E3E7F0"
    />
    <path
        d="M120.536 86.5962L138.199 76.3326C138.199 76.3326 138.188 79.8102 138.191 80.0286L120.52 90.2991L120.536 86.5962Z"
        fill="#E3E7F0"
    />
    <path
        d="M68.5939 82.5044L136.695 42.9281L127.367 37.5428L59.266 77.1191L68.5939 82.5044Z"
        fill="white"
    />
    <path
        d="M52.9057 73.1121L52.774 126.114C52.7572 131.982 56.899 139.157 62.0074 142.107C67.1161 145.056 71.2846 142.678 71.3014 136.81L71.4331 83.8089L67.969 81.8088L67.837 134.81C67.8268 138.484 65.2171 139.972 62.0188 138.126C58.8205 136.279 56.2279 131.787 56.2381 128.114L56.3701 75.1122L52.9057 73.1121Z"
        fill="#3A53D0"
    />
    <path
        d="M71.433 83.8089L143.974 41.6529L140.51 39.6528L67.9689 81.8088L71.433 83.8089Z"
        fill="#7BB1FF"
    />
    <path
        d="M143.994 32.9616L126.746 42.9864L119.297 55.9947L143.975 41.6541L143.994 32.9616Z"
        fill="#5793FB"
    />
    <path
        d="M126.748 42.9864L119.3 55.9926L115.835 53.9928L123.284 40.9866L126.748 42.9864Z"
        fill="#3A53D0"
    />
    <path
        d="M126.748 42.9863L143.993 32.9642L140.529 30.9641L123.284 40.9862L126.748 42.9863Z"
        fill="#7BB1FF"
    />
</svg>
